<svg
  width="16"
  height="16"
  viewBox="0 0 16 16"
  fill="white"
  xmlns="http://www.w3.org/2000/svg"
>
  <path
    d="M8 0.198C3.58 0.198 0 3.777 0 8.198C0 11.773 2.29 14.88 5.47 15.92C5.87 15.99 6 15.77 6 15.58V14.14C3.97 14.62 3.48 13.48 3.48 13.48C3.14 12.67 2.64 12.42 2.64 12.42C1.92 11.94 2.7 11.95 2.7 11.95C3.5 12.01 3.93 12.82 3.93 12.82C4.64 14.07 5.86 13.72 6.3 13.54C6.37 13.02 6.58 12.68 6.83 12.46C5 12.24 3.05 11.5 3.05 8.53C3.05 7.63 3.38 6.89 3.91 6.3C3.82 6.08 3.52 5.17 4.02 3.93C4.02 3.93 4.72 3.7 5.97 4.58C6.62 4.42 7.31 4.34 8 4.34C8.69 4.34 9.38 4.42 10.03 4.58C11.28 3.7 11.98 3.93 11.98 3.93C12.48 5.17 12.18 6.08 12.09 6.3C12.62 6.89 12.95 7.63 12.95 8.53C12.95 11.51 11 12.23 9.17 12.45C9.46 12.7 9.71 13.19 9.71 13.91V15.58C9.71 15.77 9.84 15.99 10.24 15.92C13.41 14.88 15.71 11.77 15.71 8.198C16 3.777 12.42 0.198 8 0.198Z"
  />
</svg>
