<svg width="16" height="16" viewBox="0 0 16 16" fill="none" xmlns="http://www.w3.org/2000/svg">
  <path d="M5.33333 16C6.806 16 8 14.806 8 13.3333V10.6667H5.33333C3.86067 10.6667 2.66667 11.8607 2.66667 13.3333C2.66667 14.806 3.86067 16 5.33333 16Z" fill="white"/>
  <path d="M2.66667 8C2.66667 6.52733 3.86067 5.33333 5.33333 5.33333H8V10.6667H5.33333C3.86067 10.6667 2.66667 9.47267 2.66667 8Z" fill="white"/>
  <path d="M2.66667 2.66667C2.66667 1.194 3.86067 0 5.33333 0H8V5.33333H5.33333C3.86067 5.33333 2.66667 4.14 2.66667 2.66667Z" fill="white"/>
  <path d="M8 0H10.6667C12.1393 0 13.3333 1.194 13.3333 2.66667C13.3333 4.14 12.1393 5.33333 10.6667 5.33333H8V0Z" fill="white"/>
  <path d="M13.3333 8C13.3333 9.47267 12.1393 10.6667 10.6667 10.6667C9.194 10.6667 8 9.47267 8 8C8 6.52733 9.194 5.33333 10.6667 5.33333C12.1393 5.33333 13.3333 6.52733 13.3333 8Z" fill="white"/>
</svg>
